# ProBuilder 6.0.7
# https://unity3d.com/unity/features/worldbuilding/probuilder
# 28/09/2025 11:18:08

mtllib ./M_GrassPatch2.mtl
o M_GrassPatch2

g P_Grass (7)
v -0.09472747 0.0006473846 0.1188339
v -0.07821827 0.3085226 0.1060337
v -0.07011355 0.003066748 0.04600769
v -0.1303976 0.005265357 -0.02031814
v -0.1448809 0.4326988 -0.04257768
v -0.1438285 0.00797078 -0.1098089
v 0.03670942 0.005265357 -0.04342692
v 0.05266197 0.4326988 -0.06465923
v 0.1161862 0.00797078 -0.08670006
v -0.003361245 0.003458843 -0.2125586
v 0.01364718 0.3138929 -0.2220179
v 0.01769535 0.005825965 -0.2747957
v -0.01449529 -0.001629586 0.04284566
v 0.00892179 0.4257946 0.02982331
v 0.01449529 0.001629641 -0.04284538
v 0.1109393 -0.005137351 0.005823405
v 0.1303674 0.3571793 -0.009241753
v 0.1399056 -0.002290308 -0.07988188
v -0.3015822 0.0006473846 0.03129479
v -0.2928198 0.3085226 0.05025851
v -0.2361509 0.003066749 0.07164618
v -0.1579736 0.005265357 0.02781052
v -0.1330283 0.4326988 0.01870039
v -0.06775355 0.007970781 0.03483552
v -0.1730118 0.005265357 0.1958362
v -0.155908 0.4326988 0.2161524
v -0.1487076 0.007970781 0.2830051
v 0.0007988482 0.003458843 0.1948016
v 0.006193377 0.3138929 0.2135008
v 0.05671145 0.005825966 0.2293068
v -0.2455696 -0.001629586 0.1265523
v -0.2381432 0.4257946 0.1522969
v -0.1685859 0.001629641 0.1740596
v -0.2376849 -0.005137352 0.2570986
v -0.2273713 0.3571794 0.2794154
v -0.160682 -0.002290308 0.3045853

vt -26.04688 -92.5625

vn 1.131583 -0.02709157 0.3809649
vn 1.181169 0.01863296 -0.17634
vn 0.5702717 0.01863287 1.049307
vn 1.131467 -0.03044243 0.3808918
vn -0.6255342 -0.02709178 1.017016
vn -0.0936298 0.01863295 1.190583
vn -1.150629 0.01863263 0.319858
vn -0.6254353 -0.03044258 1.01692

usemtl M_Grass
f 3/1/1 2/1/1 1/1/1
f 6/1/2 5/1/2 4/1/2
f 9/1/3 8/1/3 7/1/3
f 12/1/4 11/1/4 10/1/4
f 15/1/4 14/1/4 13/1/4
f 18/1/1 17/1/1 16/1/1
f 21/1/5 20/1/5 19/1/5
f 24/1/6 23/1/6 22/1/6
f 27/1/7 26/1/7 25/1/7
f 30/1/8 29/1/8 28/1/8
f 33/1/8 32/1/8 31/1/8
f 36/1/5 35/1/5 34/1/5

